<svg xmlns="http://www.w3.org/2000/svg" width="44" height="44" viewBox="0 0 44 44">
  <g id="Group_28" data-name="Group 28" transform="translate(-0.11)">
    <g id="Rectangle_9" data-name="Rectangle 9" transform="translate(0.11 0)" fill="#FFF" stroke="#213749" stroke-width="1">
      <rect width="44" height="44" rx="4" stroke="none"/>
      <rect x="1" y="1" width="42" height="42" rx="3" fill="none"/>
    </g>
    <g id="instagram" transform="translate(10.236 10.524)">
      <path id="Path_36" data-name="Path 36" d="M23.464,6.785a8.433,8.433,0,0,0-.536-2.8A5.912,5.912,0,0,0,19.551.609a8.455,8.455,0,0,0-2.8-.536C15.516.014,15.124,0,11.99,0S8.465.014,7.234.068A8.436,8.436,0,0,0,4.434.6,5.631,5.631,0,0,0,2.387,1.939a5.682,5.682,0,0,0-1.33,2.042,8.456,8.456,0,0,0-.536,2.8C.462,8.016.449,8.408.449,11.542S.462,15.067.516,16.3a8.433,8.433,0,0,0,.537,2.8A5.911,5.911,0,0,0,4.43,22.475a8.456,8.456,0,0,0,2.8.536c1.231.054,1.623.068,4.756.068s3.526-.013,4.756-.068a8.431,8.431,0,0,0,2.8-.536A5.9,5.9,0,0,0,22.919,19.1a8.461,8.461,0,0,0,.536-2.8c.054-1.231.068-1.623.068-4.756s0-3.526-.059-4.756Zm-2.078,9.423a6.326,6.326,0,0,1-.4,2.142A3.828,3.828,0,0,1,18.8,20.541a6.348,6.348,0,0,1-2.142.4c-1.217.054-1.582.068-4.662.068s-3.449-.013-4.662-.068a6.323,6.323,0,0,1-2.142-.4,3.551,3.551,0,0,1-1.325-.861A3.588,3.588,0,0,1,3,18.354a6.349,6.349,0,0,1-.4-2.142C2.554,15,2.541,14.63,2.541,11.551s.013-3.449.068-4.662A6.323,6.323,0,0,1,3,4.748a3.508,3.508,0,0,1,.866-1.326A3.583,3.583,0,0,1,5.2,2.561a6.353,6.353,0,0,1,2.142-.4C8.555,2.11,8.92,2.1,12,2.1s3.449.014,4.662.068a6.326,6.326,0,0,1,2.142.4,3.549,3.549,0,0,1,1.325.861,3.587,3.587,0,0,1,.861,1.326,6.351,6.351,0,0,1,.4,2.142c.054,1.217.068,1.582.068,4.662s-.014,3.44-.068,4.657Zm0,0" transform="translate(-0.449 0)" fill="#213749"/>
      <path id="Path_37" data-name="Path 37" d="M130.878,124.5a5.929,5.929,0,1,0,5.929,5.929A5.93,5.93,0,0,0,130.878,124.5Zm0,9.774a3.846,3.846,0,1,1,3.846-3.846A3.846,3.846,0,0,1,130.878,134.274Zm0,0" transform="translate(-119.336 -118.887)" fill="#213749"/>
      <path id="Path_38" data-name="Path 38" d="M365.218,89.986a1.384,1.384,0,1,1-1.384-1.384A1.384,1.384,0,0,1,365.218,89.986Zm0,0" transform="translate(-346.129 -84.607)" fill="#213749"/>
    </g>
    
  </g>
</svg>
