<svg xmlns="http://www.w3.org/2000/svg" width="44" height="44" viewBox="0 0 44 44">
  <g id="Group_27" data-name="Group 27" transform="translate(0)">
    <g id="Rectangle_10" data-name="Rectangle 10" transform="translate(0 0)" fill="#FFF" stroke="#213749" stroke-width="1">
      <rect width="44" height="44" rx="4" stroke="none"/>
      <rect x="1" y="1" width="42" height="42" rx="3" fill="none"/>
    </g>
    <path id="Path_39" data-name="Path 39" d="M88.779,161.119a9.156,9.156,0,0,0,2.795,2.616,7.441,7.441,0,0,0,4.154.894c.686-.033.892-.212.924-.9a3.042,3.042,0,0,1,.306-1.356.607.607,0,0,1,.967-.234,2.75,2.75,0,0,1,.521.466c.386.422.761.859,1.161,1.267a2.246,2.246,0,0,0,1.849.753h2.9c.467-.032.71-.6.442-1.127a5.654,5.654,0,0,0-.7-1,26.666,26.666,0,0,0-1.953-1.964c-.6-.581-.633-.919-.155-1.59.524-.733,1.085-1.437,1.613-2.166a7.843,7.843,0,0,0,1.255-2.175c.165-.52.019-.749-.512-.841a1.745,1.745,0,0,0-.281-.015l-3.158,0a.7.7,0,0,0-.74.509c-.186.466-.378.932-.6,1.38a11.3,11.3,0,0,1-1.847,2.839c-.174.184-.366.417-.656.321-.361-.132-.468-.729-.462-.93l0-3.645c-.07-.52-.186-.753-.7-.854H92.62a1.048,1.048,0,0,0-.891.443c-.133.159-.175.261.1.314a1.1,1.1,0,0,1,.933,1,11.228,11.228,0,0,1,.045,2.623,2.433,2.433,0,0,1-.167.749.442.442,0,0,1-.751.22,3.093,3.093,0,0,1-.728-.8,17.672,17.672,0,0,1-1.926-3.569.834.834,0,0,0-.788-.591c-.947-.015-1.895-.017-2.843,0-.569.01-.739.287-.506.8a35.2,35.2,0,0,0,3.679,6.558Zm0,0" transform="translate(-72.915 -136.94)" fill="#213749"/>
  </g>
</svg>
